<svg id="Layer_1" data-name="Layer 1" xmlns="http://www.w3.org/2000/svg" viewBox="0 0 143.71 34.98"><defs><style>.cls-1,.cls-3{font-size:31px;fill:#32c864;font-family:Calibri;}.cls-1,.cls-4{letter-spacing:0.1em;}.cls-2{fill:none;stroke:#32c864;stroke-linecap:round;stroke-miterlimit:10;stroke-width:2px;}</style></defs><title>simplifiLogo</title><text class="cls-1" transform="translate(133.4 25.29)">i</text><polyline class="cls-2" points="9.58 20.07 9.93 20.35 10.27 20.6 10.68 20.83 11.08 20.99 11.5 21.12 11.94 21.2 12.38 21.22 12.82 21.2 13.27 21.12 13.69 20.99 14.09 20.83 14.49 20.6 14.84 20.35 15.19 20.07 15.47 19.72 15.72 19.37 15.95 18.97 16.11 18.57 16.24 18.14 16.32 17.7 16.34 17.26"/><polyline class="cls-2" points="8.97 19.24 9.22 19.62 9.5 19.97 9.85 20.3 10.21 20.56 10.62 20.79 11.04 20.99 11.46 21.1 11.92 21.2 12.38 21.22"/><line class="cls-2" x1="8.97" y1="19.24" x2="1" y2="5.44"/><polyline class="cls-2" points="39.84 5.44 31.87 19.24 31 20.28 30.64 20.55 30.21 20.8 29.79 20.97 29.34 21.11 28.88 21.2 28.41 21.22 27.95 21.2 27.48 21.11 27.04 20.97 26.61 20.8 26.19 20.55 25.82 20.28 25.46 19.97 25.16 19.6 24.89 19.23 24.65 18.79 24.49 18.36 24.35 17.9 24.27 17.42 24.25 16.95"/><polyline class="cls-2" points="24.25 17.26 24.23 16.82 24.15 16.4 24.04 15.98 23.88 15.59 23.67 15.21 23.42 14.84 23.13 14.52 22.83 14.23 22.48 13.96 22.1 13.75 21.71 13.58 21.29 13.44 20.87 13.35 20.45 13.31 20 13.33 19.58 13.37 19.16 13.48 18.74 13.61 18.35 13.81 17.99 14.04 17.66 14.32 17.36 14.63 17.07 14.96 16.84 15.32 16.65 15.71 16.51 16.13 16.4 16.55 16.36 16.97 16.34 17.41 16.38 17.84 16.47 18.26 16.61 18.68 16.78 19.07 16.99 19.45 17.26 19.8 17.55 20.1 17.87 20.39 18.24 20.64 18.62 20.85 19.01 21 19.43 21.12 19.85 21.2 20.29 21.22"/><polyline class="cls-2" points="19.3 29.12 20.73 29.11 21.18 29.03 21.6 28.89 22 28.74 22.41 28.51 22.75 28.26 23.1 27.97 23.38 27.63 23.63 27.28 23.86 26.88 24.02 26.48 24.15 26.05 24.23 25.61 24.25 25.17 24.23 24.73 24.15 24.29 24.02 23.87 23.86 23.46 23.63 23.06 23.38 22.71 23.1 22.37 22.75 22.08 22.41 21.83 22 21.6 21.6 21.45 21.18 21.31 20.73 21.24 20.29 21.22"/><text class="cls-3" transform="translate(47.93 25.29)">simpli<tspan class="cls-4" x="74.52" y="0">f</tspan></text></svg>