<svg id="Layer_1" data-name="Layer 1" xmlns="http://www.w3.org/2000/svg" viewBox="0 0 138.51 26.7"><defs><style>.cls-1{fill:#32c864;}</style></defs><title>simplifiLogo</title><path class="cls-1" d="M138.5,3.7a1.64,1.64,0,0,1-.33,1.19,1.79,1.79,0,0,1-1.22.32,1.76,1.76,0,0,1-1.21-.31,1.61,1.61,0,0,1-.32-1.17,1.66,1.66,0,0,1,.33-1.2,2.5,2.5,0,0,1,2.43,0A1.62,1.62,0,0,1,138.5,3.7Zm-.28,18.22a.37.37,0,0,1-.06.21.54.54,0,0,1-.2.14,1.41,1.41,0,0,1-.38.09,5.22,5.22,0,0,1-.62,0,5.28,5.28,0,0,1-.61,0,1.41,1.41,0,0,1-.38-.09.32.32,0,0,1-.25-.35V8.3a.46.46,0,0,1,.05-.2A.41.41,0,0,1,136,8a1.41,1.41,0,0,1,.38-.09,5.28,5.28,0,0,1,.61,0,5.22,5.22,0,0,1,.62,0A1.41,1.41,0,0,1,138,8a.46.46,0,0,1,.2.15.36.36,0,0,1,.06.2Z" transform="translate(0 -1.11)"/><path class="cls-1" d="M12.43,19.22l-.66,0-.57-.11-1-.37-.84-.54-.4-.33a1,1,0,0,1,1.28-1.54l.59.46.29.17.64.22.69.07.6-.07.63-.22.6-.38.21-.19.41-.52.17-.29.22-.64.07-.69a1,1,0,0,1,2,.09l0,.57-.1.57-.38,1-.53.84-.46.53-.84.64-.54.29-1,.34-.57.09Z" transform="translate(0 -1.11)"/><path class="cls-1" d="M12.38,19.22h0l-.62,0-1.09-.28-1-.53L9.16,18l-.42-.42-.36-.44-.25-.38a1,1,0,0,1,.29-1.38,1,1,0,0,1,1.39.29l.42.59.53.44.61.32.67.16h.39a1,1,0,0,1,0,2Z" transform="translate(0 -1.11)"/><path class="cls-1" d="M9,17.24a1,1,0,0,1-.87-.5l-8-13.8A1,1,0,0,1,.5,1.58a1,1,0,0,1,1.37.36l8,13.8A1,1,0,0,1,9,17.24Z" transform="translate(0 -1.11)"/><path class="cls-1" d="M28.46,19.22l-.69,0-.6-.11-1.06-.4-.88-.58-.55-.48L24,16.72l-.31-.58-.35-1.07-.09-.6,0-.48a1,1,0,0,1,1-1,1,1,0,0,1,1,1l.07.76.24.7L26,16l.21.24.56.45.31.18.67.24.34.06.4,0,.64-.08.67-.23.54-.35.74-.89L39,1.94a1,1,0,0,1,1.73,1l-8.06,14-1.05,1.2-.45.33-.57.32-1.05.36-.6.1Z" transform="translate(0 -1.11)"/><path class="cls-1" d="M20.29,19.22h0l-.58,0-1-.25-.5-.21-.93-.58-.68-.66-.41-.55-.47-1-.27-1.06,0-.49.09-1.15.32-1,.57-1,.64-.68.5-.42,1-.53,1-.3,1-.06.62.07,1,.29,1,.51.73.61.43.49.56.94.19.5.23,1.06,0,.44a1,1,0,1,1-2,.09l-.08-.73L23,13l-.34-.56-.5-.51-.2-.15-.58-.29-.64-.18-.3,0-.66,0-.64.19-.53.29-.72.72-.3.53-.19.64,0,.67.11.64.24.62.14.24.45.52.52.4.53.24.63.15h.38a1,1,0,0,1-.05,2Z" transform="translate(0 -1.11)"/><path class="cls-1" d="M19.3,27.13a1,1,0,0,1-1-1,1,1,0,0,1,1-1l1.65-.07.63-.22.59-.38.22-.19.41-.52.17-.29.22-.64.07-.69-.07-.6L23,20.9l-.39-.6-.18-.21-.52-.41-.3-.17-.63-.22-.69-.07a1,1,0,0,1-1-1,1,1,0,0,1,1-1l.58,0,.57.1,1,.38.83.53.53.46.64.84.3.54.34,1,.09.57,0,.44,0,.66-.11.57-.37,1-.54.84-.45.53-.84.64-.54.29-1,.34-.61.09-1.43,0Z" transform="translate(0 -1.11)"/><path class="cls-1" d="M58.8,18.21a4.24,4.24,0,0,1-.39,1.86,3.71,3.71,0,0,1-1.1,1.38,5,5,0,0,1-1.69.85,7.8,7.8,0,0,1-2.17.29,7.7,7.7,0,0,1-1.38-.12,7.89,7.89,0,0,1-1.18-.28,6,6,0,0,1-.89-.37,2.44,2.44,0,0,1-.53-.34.86.86,0,0,1-.24-.42,2.87,2.87,0,0,1-.08-.74,3.28,3.28,0,0,1,0-.49,1.86,1.86,0,0,1,.08-.32.33.33,0,0,1,.13-.17.3.3,0,0,1,.19-.05,1,1,0,0,1,.49.2,8.84,8.84,0,0,0,.8.45,6.84,6.84,0,0,0,1.13.44,4.85,4.85,0,0,0,1.5.21,4.53,4.53,0,0,0,1.15-.14,2.69,2.69,0,0,0,.89-.4,1.78,1.78,0,0,0,.58-.67,2.13,2.13,0,0,0,.21-1,1.56,1.56,0,0,0-.3-1,2.82,2.82,0,0,0-.78-.7,5.82,5.82,0,0,0-1.09-.53l-1.25-.5a12.78,12.78,0,0,1-1.25-.58,4.89,4.89,0,0,1-1.1-.79,3.88,3.88,0,0,1-.78-1.12,3.75,3.75,0,0,1-.29-1.56,3.85,3.85,0,0,1,.31-1.54,3.44,3.44,0,0,1,.93-1.29A4.73,4.73,0,0,1,52.28,8a6.47,6.47,0,0,1,2.17-.33,6.68,6.68,0,0,1,1.09.09,7.53,7.53,0,0,1,1,.22,3.89,3.89,0,0,1,.75.3,2.51,2.51,0,0,1,.47.28.89.89,0,0,1,.22.21.65.65,0,0,1,.07.21c0,.07,0,.16,0,.28s0,.24,0,.4,0,.32,0,.45a1.07,1.07,0,0,1-.08.31.34.34,0,0,1-.13.17.25.25,0,0,1-.16.06.84.84,0,0,1-.4-.17,4.86,4.86,0,0,0-.66-.35,7.47,7.47,0,0,0-1-.36,4.49,4.49,0,0,0-1.27-.17,3.8,3.8,0,0,0-1.12.15,2,2,0,0,0-.79.41,1.58,1.58,0,0,0-.47.62,1.92,1.92,0,0,0-.16.79,1.6,1.6,0,0,0,.3,1,2.88,2.88,0,0,0,.79.71,6.63,6.63,0,0,0,1.1.54l1.27.5a13.1,13.1,0,0,1,1.27.58,4.67,4.67,0,0,1,1.11.77,3.41,3.41,0,0,1,1.08,2.6Z" transform="translate(0 -1.11)"/><path class="cls-1" d="M65.15,3.7a1.64,1.64,0,0,1-.33,1.19,1.8,1.8,0,0,1-1.23.32,1.75,1.75,0,0,1-1.2-.31,1.61,1.61,0,0,1-.32-1.17,1.66,1.66,0,0,1,.33-1.2,1.79,1.79,0,0,1,1.22-.32,1.82,1.82,0,0,1,1.21.31A1.67,1.67,0,0,1,65.15,3.7Zm-.28,18.22a.37.37,0,0,1-.06.21.54.54,0,0,1-.2.14,1.41,1.41,0,0,1-.38.09,5.22,5.22,0,0,1-.62,0,5.28,5.28,0,0,1-.61,0,1.41,1.41,0,0,1-.38-.09.32.32,0,0,1-.25-.35V8.3a.46.46,0,0,1,.05-.2.41.41,0,0,1,.2-.15A1.41,1.41,0,0,1,63,7.86a5.28,5.28,0,0,1,.61,0,5.22,5.22,0,0,1,.62,0,1.41,1.41,0,0,1,.38.09.46.46,0,0,1,.2.15.36.36,0,0,1,.06.2Z" transform="translate(0 -1.11)"/><path class="cls-1" d="M89.69,21.92a.37.37,0,0,1-.06.21.54.54,0,0,1-.2.14,1.32,1.32,0,0,1-.38.09,5,5,0,0,1-.6,0,5.22,5.22,0,0,1-.62,0,1.61,1.61,0,0,1-.39-.09.54.54,0,0,1-.2-.14.37.37,0,0,1-.06-.21V13.64A7.61,7.61,0,0,0,87,12.07a3.6,3.6,0,0,0-.49-1.23,2.22,2.22,0,0,0-.85-.79,2.54,2.54,0,0,0-1.21-.27,2.82,2.82,0,0,0-1.73.67,11.84,11.84,0,0,0-1.92,2v9.52a.37.37,0,0,1-.06.21.47.47,0,0,1-.2.14,1.5,1.5,0,0,1-.39.09,5,5,0,0,1-.6,0,5.21,5.21,0,0,1-.6,0,1.41,1.41,0,0,1-.39-.09.47.47,0,0,1-.2-.14.36.36,0,0,1,0-.21V13.64a6.93,6.93,0,0,0-.17-1.57,3.82,3.82,0,0,0-.5-1.23,2.27,2.27,0,0,0-.84-.79,2.53,2.53,0,0,0-1.2-.27,2.83,2.83,0,0,0-1.74.67,11.09,11.09,0,0,0-1.91,2v9.52a.37.37,0,0,1-.06.21.54.54,0,0,1-.2.14,1.32,1.32,0,0,1-.38.09,5.11,5.11,0,0,1-.62,0,5,5,0,0,1-.6,0,1.61,1.61,0,0,1-.39-.09.43.43,0,0,1-.19-.14.37.37,0,0,1-.06-.21V8.3a.46.46,0,0,1,0-.21.47.47,0,0,1,.18-.15,1.36,1.36,0,0,1,.35-.09l.56,0,.55,0a1.09,1.09,0,0,1,.34.09.71.71,0,0,1,.18.15.46.46,0,0,1,0,.21v1.8A8.76,8.76,0,0,1,74,8.21a4.56,4.56,0,0,1,2.19-.59,5.5,5.5,0,0,1,1.52.19,4.08,4.08,0,0,1,1.19.56,3.66,3.66,0,0,1,.87.84,4.7,4.7,0,0,1,.61,1.1q.69-.74,1.29-1.26a7.84,7.84,0,0,1,1.19-.83,4.87,4.87,0,0,1,1.1-.46A4,4,0,0,1,85,7.62a4.73,4.73,0,0,1,2.21.46,4.05,4.05,0,0,1,1.45,1.23,5,5,0,0,1,.79,1.81,10.28,10.28,0,0,1,.23,2.19Z" transform="translate(0 -1.11)"/><path class="cls-1" d="M106.78,14.9a12.17,12.17,0,0,1-.39,3.21,6.89,6.89,0,0,1-1.13,2.41,5.11,5.11,0,0,1-1.86,1.53,5.66,5.66,0,0,1-2.52.54,4.87,4.87,0,0,1-1.12-.12,4.75,4.75,0,0,1-1-.38,6.15,6.15,0,0,1-1-.65c-.32-.27-.66-.57-1-.93v6.81a.4.4,0,0,1-.06.22.42.42,0,0,1-.19.15,1.52,1.52,0,0,1-.38.09,5.22,5.22,0,0,1-.62,0,5,5,0,0,1-.61,0,1.41,1.41,0,0,1-.38-.09.36.36,0,0,1-.2-.15.4.4,0,0,1,0-.22V8.3a.46.46,0,0,1,0-.22.35.35,0,0,1,.18-.15,1.4,1.4,0,0,1,.35-.08l.52,0,.52,0a1.42,1.42,0,0,1,.34.08.42.42,0,0,1,.19.15.45.45,0,0,1,0,.22v1.83A13.25,13.25,0,0,1,97.64,9a7.79,7.79,0,0,1,1.15-.78,5.49,5.49,0,0,1,1.2-.46,5,5,0,0,1,1.29-.16,5.2,5.2,0,0,1,2.53.57,4.71,4.71,0,0,1,1.71,1.58,7.36,7.36,0,0,1,1,2.32A12.68,12.68,0,0,1,106.78,14.9Zm-2.59.28a12.15,12.15,0,0,0-.16-2,6,6,0,0,0-.55-1.73,3.23,3.23,0,0,0-1-1.21,2.82,2.82,0,0,0-1.63-.45,3.1,3.1,0,0,0-1,.14,4.57,4.57,0,0,0-1,.45,7.47,7.47,0,0,0-1,.82,14.86,14.86,0,0,0-1.13,1.25v5.42a10.58,10.58,0,0,0,2,1.92,3.26,3.26,0,0,0,2,.67,2.78,2.78,0,0,0,1.62-.46,3.39,3.39,0,0,0,1.1-1.21,6.27,6.27,0,0,0,.61-1.69A9.36,9.36,0,0,0,104.19,15.18Z" transform="translate(0 -1.11)"/><path class="cls-1" d="M113,21.92a.37.37,0,0,1-.06.21.54.54,0,0,1-.2.14,1.32,1.32,0,0,1-.38.09,5.11,5.11,0,0,1-.62,0,5,5,0,0,1-.6,0,1.61,1.61,0,0,1-.39-.09.43.43,0,0,1-.19-.14.37.37,0,0,1-.06-.21V1.7a.37.37,0,0,1,.06-.21.39.39,0,0,1,.19-.16,1.61,1.61,0,0,1,.39-.09,5,5,0,0,1,.6,0,5.11,5.11,0,0,1,.62,0,1.32,1.32,0,0,1,.38.09.47.47,0,0,1,.2.16.37.37,0,0,1,.06.21Z" transform="translate(0 -1.11)"/><path class="cls-1" d="M120.43,3.7a1.64,1.64,0,0,1-.33,1.19,1.8,1.8,0,0,1-1.23.32,1.75,1.75,0,0,1-1.2-.31,1.61,1.61,0,0,1-.32-1.17,1.66,1.66,0,0,1,.33-1.2,1.79,1.79,0,0,1,1.22-.32,1.82,1.82,0,0,1,1.21.31A1.67,1.67,0,0,1,120.43,3.7Zm-.29,18.22a.37.37,0,0,1-.06.21.49.49,0,0,1-.19.14,1.41,1.41,0,0,1-.38.09,5.22,5.22,0,0,1-.62,0,5.16,5.16,0,0,1-.61,0,1.41,1.41,0,0,1-.38-.09.47.47,0,0,1-.2-.14.36.36,0,0,1,0-.21V8.3a.35.35,0,0,1,0-.2.41.41,0,0,1,.2-.15,1.41,1.41,0,0,1,.38-.09,5.16,5.16,0,0,1,.61,0,5.22,5.22,0,0,1,.62,0,1.41,1.41,0,0,1,.38.09.42.42,0,0,1,.19.15.36.36,0,0,1,.06.2Z" transform="translate(0 -1.11)"/><path class="cls-1" d="M132.22,2.7a2.86,2.86,0,0,1,0,.46c0,.11,0,.21-.06.28a.27.27,0,0,1-.1.14.24.24,0,0,1-.15,0,.67.67,0,0,1-.27-.07l-.38-.15a5.14,5.14,0,0,0-.54-.15,3.14,3.14,0,0,0-.72-.07,2.27,2.27,0,0,0-.95.18,1.41,1.41,0,0,0-.64.57,2.79,2.79,0,0,0-.35,1,9.1,9.1,0,0,0-.1,1.49V7.9h3a.32.32,0,0,1,.2.06.35.35,0,0,1,.15.18,1.08,1.08,0,0,1,.11.32,2.37,2.37,0,0,1,0,.49,1.74,1.74,0,0,1-.14.79A.4.4,0,0,1,131,10h-3V21.92a.37.37,0,0,1-.06.21.51.51,0,0,1-.21.14,1.5,1.5,0,0,1-.39.09,5,5,0,0,1-.6,0,5.28,5.28,0,0,1-.61,0,1.41,1.41,0,0,1-.38-.09.51.51,0,0,1-.21-.14.37.37,0,0,1-.06-.21V10h-1.92a.38.38,0,0,1-.36-.24A1.94,1.94,0,0,1,123,9a3.48,3.48,0,0,1,0-.49,1.12,1.12,0,0,1,.09-.32.35.35,0,0,1,.15-.18.37.37,0,0,1,.21-.06h1.92V6.5a9.7,9.7,0,0,1,.27-2.45,4,4,0,0,1,.81-1.67,3.19,3.19,0,0,1,1.37-1,5.45,5.45,0,0,1,1.94-.31,4.93,4.93,0,0,1,1,.1,3.56,3.56,0,0,1,.77.21,1.07,1.07,0,0,1,.37.2.7.7,0,0,1,.15.24,1.06,1.06,0,0,1,.08.34A3.78,3.78,0,0,1,132.22,2.7Z" transform="translate(0 -1.11)"/></svg>